<mxfile host="Electron" agent="Mozilla/5.0 (Macintosh; Intel Mac OS X 10_15_7) AppleWebKit/537.36 (KHTML, like Gecko) draw.io/28.1.2 Chrome/138.0.7204.243 Electron/37.4.0 Safari/537.36" version="28.1.2" pages="2">
  <diagram name="Structure" id="yww6GxixALLdwQlshTQI">
    <mxGraphModel dx="703" dy="765" grid="1" gridSize="10" guides="1" tooltips="1" connect="1" arrows="1" fold="1" page="1" pageScale="1" pageWidth="827" pageHeight="1169" math="0" shadow="0">
      <root>
        <mxCell id="0" />
        <mxCell id="1" parent="0" />
        <mxCell id="sTX4fRAyZOR4v2RY1igR-3" style="edgeStyle=orthogonalEdgeStyle;rounded=0;orthogonalLoop=1;jettySize=auto;html=1;entryX=0.5;entryY=0;entryDx=0;entryDy=0;" edge="1" parent="1" source="sTX4fRAyZOR4v2RY1igR-1" target="sTX4fRAyZOR4v2RY1igR-2">
          <mxGeometry relative="1" as="geometry" />
        </mxCell>
        <mxCell id="sTX4fRAyZOR4v2RY1igR-1" value="UI&lt;div&gt;(make changes to Database&lt;span style=&quot;background-color: transparent; color: light-dark(rgb(0, 0, 0), rgb(255, 255, 255));&quot;&gt;)&lt;/span&gt;&lt;/div&gt;" style="rounded=1;whiteSpace=wrap;html=1;" vertex="1" parent="1">
          <mxGeometry x="160" y="360" width="160" height="80" as="geometry" />
        </mxCell>
        <mxCell id="sTX4fRAyZOR4v2RY1igR-5" style="edgeStyle=orthogonalEdgeStyle;rounded=0;orthogonalLoop=1;jettySize=auto;html=1;" edge="1" parent="1" source="sTX4fRAyZOR4v2RY1igR-2" target="sTX4fRAyZOR4v2RY1igR-4">
          <mxGeometry relative="1" as="geometry" />
        </mxCell>
        <mxCell id="sTX4fRAyZOR4v2RY1igR-2" value="Service&lt;div&gt;(check for updates)&lt;/div&gt;" style="rounded=1;whiteSpace=wrap;html=1;" vertex="1" parent="1">
          <mxGeometry x="160" y="520" width="160" height="80" as="geometry" />
        </mxCell>
        <mxCell id="sTX4fRAyZOR4v2RY1igR-10" style="edgeStyle=orthogonalEdgeStyle;rounded=0;orthogonalLoop=1;jettySize=auto;html=1;entryX=0;entryY=0.5;entryDx=0;entryDy=0;" edge="1" parent="1" source="sTX4fRAyZOR4v2RY1igR-4" target="sTX4fRAyZOR4v2RY1igR-9">
          <mxGeometry relative="1" as="geometry" />
        </mxCell>
        <mxCell id="sTX4fRAyZOR4v2RY1igR-4" value="Cronjob&lt;div&gt;(updates Target Database)&lt;/div&gt;" style="rounded=1;whiteSpace=wrap;html=1;" vertex="1" parent="1">
          <mxGeometry x="400" y="520" width="160" height="80" as="geometry" />
        </mxCell>
        <mxCell id="sTX4fRAyZOR4v2RY1igR-8" style="edgeStyle=orthogonalEdgeStyle;rounded=0;orthogonalLoop=1;jettySize=auto;html=1;entryX=0.5;entryY=1;entryDx=0;entryDy=0;" edge="1" parent="1" source="sTX4fRAyZOR4v2RY1igR-6" target="sTX4fRAyZOR4v2RY1igR-2">
          <mxGeometry relative="1" as="geometry" />
        </mxCell>
        <mxCell id="sTX4fRAyZOR4v2RY1igR-6" value="Database&lt;div&gt;(Store Database Versions)&lt;/div&gt;" style="rounded=1;whiteSpace=wrap;html=1;" vertex="1" parent="1">
          <mxGeometry x="160" y="680" width="160" height="80" as="geometry" />
        </mxCell>
        <mxCell id="sTX4fRAyZOR4v2RY1igR-9" value="Target Database" style="rounded=0;whiteSpace=wrap;html=1;" vertex="1" parent="1">
          <mxGeometry x="640" y="520" width="160" height="80" as="geometry" />
        </mxCell>
      </root>
    </mxGraphModel>
  </diagram>
  <diagram id="ctixkqNT8qEd1WcgeHwe" name="Page-2">
    <mxGraphModel dx="573" dy="624" grid="1" gridSize="10" guides="1" tooltips="1" connect="1" arrows="1" fold="1" page="1" pageScale="1" pageWidth="827" pageHeight="1169" math="0" shadow="0">
      <root>
        <mxCell id="0" />
        <mxCell id="1" parent="0" />
        <mxCell id="aPmfAace7drn0rS3H7Fa-3" style="edgeStyle=orthogonalEdgeStyle;rounded=0;orthogonalLoop=1;jettySize=auto;html=1;entryX=0;entryY=0.5;entryDx=0;entryDy=0;" edge="1" parent="1" source="aPmfAace7drn0rS3H7Fa-1" target="aPmfAace7drn0rS3H7Fa-2">
          <mxGeometry relative="1" as="geometry" />
        </mxCell>
        <mxCell id="aPmfAace7drn0rS3H7Fa-1" value="Create new Database Connection" style="rounded=1;whiteSpace=wrap;html=1;" vertex="1" parent="1">
          <mxGeometry x="200" y="360" width="160" height="80" as="geometry" />
        </mxCell>
        <mxCell id="aPmfAace7drn0rS3H7Fa-7" style="edgeStyle=orthogonalEdgeStyle;rounded=0;orthogonalLoop=1;jettySize=auto;html=1;entryX=0;entryY=0.5;entryDx=0;entryDy=0;" edge="1" parent="1" source="aPmfAace7drn0rS3H7Fa-2" target="aPmfAace7drn0rS3H7Fa-6">
          <mxGeometry relative="1" as="geometry" />
        </mxCell>
        <mxCell id="aPmfAace7drn0rS3H7Fa-2" value="Create a new Table" style="rounded=1;whiteSpace=wrap;html=1;" vertex="1" parent="1">
          <mxGeometry x="400" y="360" width="160" height="80" as="geometry" />
        </mxCell>
        <mxCell id="aPmfAace7drn0rS3H7Fa-9" style="edgeStyle=orthogonalEdgeStyle;rounded=0;orthogonalLoop=1;jettySize=auto;html=1;entryX=0;entryY=0.5;entryDx=0;entryDy=0;" edge="1" parent="1" source="aPmfAace7drn0rS3H7Fa-6" target="aPmfAace7drn0rS3H7Fa-8">
          <mxGeometry relative="1" as="geometry" />
        </mxCell>
        <mxCell id="aPmfAace7drn0rS3H7Fa-6" value="Insert Into the Postgres Database with state pending" style="rounded=1;whiteSpace=wrap;html=1;" vertex="1" parent="1">
          <mxGeometry x="600" y="360" width="160" height="80" as="geometry" />
        </mxCell>
        <mxCell id="aPmfAace7drn0rS3H7Fa-8" value="Cronjob apply the pending stuff to the remote database" style="rounded=1;whiteSpace=wrap;html=1;" vertex="1" parent="1">
          <mxGeometry x="800" y="360" width="160" height="80" as="geometry" />
        </mxCell>
      </root>
    </mxGraphModel>
  </diagram>
</mxfile>
